# xmcd
#
# Track frame offsets: 
#        150
#        17631
#        36338
#        49826
#        74204
#        90745
#        101872
#        130692
#        144558
#        162148
#        177964
#        189205
#        211280
#        231581
#
# Disc length: 3315 seconds
#
# Revision: 0
# Processed by: cddbd v1.5.2PL0 Copyright (c) Steve Scherf et al.
# Submitted via: ExactAudioCopy v0.99pb4
#
DISCID=cb0cf10e
DTITLE=Enzo Gragnaniello - Notte, sera e matina
DYEAR=2004
DGENRE=Blues
TTITLE0=Notte, sera e matina
TTITLE1=Senza voce
TTITLE2=Scalinatella
TTITLE3=Cu' mme!
TTITLE4=Statte vicino a me
TTITLE5=Tu ca' nun chiagne
TTITLE6=Scenne l'argiento
TTITLE7=Giacumino
TTITLE8=Passione
TTITLE9=Canzone appassiunata
TTITLE10=Silenzio cantatore
TTITLE11=Quartieri
TTITLE12=Si fosse nato
TTITLE13=Hei Mari'
EXTD=
EXTT0=
EXTT1=
EXTT2=
EXTT3=
EXTT4=
EXTT5=
EXTT6=
EXTT7=
EXTT8=
EXTT9=
EXTT10=
EXTT11=
EXTT12=
EXTT13=
PLAYORDER=
